<svg xmlns="http://www.w3.org/2000/svg" xmlns:xlink="http://www.w3.org/1999/xlink" version="1.1" width="256" height="256" viewBox="0 0 256 256" xml:space="preserve">
<g style="stroke: none; stroke-width: 0; stroke-dasharray: none; stroke-linecap: butt; stroke-linejoin: miter; stroke-miterlimit: 10; fill: none; fill-rule: nonzero; opacity: 1;" transform="translate(1.4065934065934016 1.4065934065934016) scale(2.81 2.81)">
	<path d="M 36.466 8.492 h -16.02 c -1.481 0 -2.682 -1.201 -2.682 -2.682 V 2.682 C 17.765 1.201 18.966 0 20.447 0 h 16.02 c 1.481 0 2.682 1.201 2.682 2.682 V 5.81 C 39.148 7.291 37.947 8.492 36.466 8.492 z" style="stroke: none; stroke-width: 1; stroke-dasharray: none; stroke-linecap: butt; stroke-linejoin: miter; stroke-miterlimit: 10; fill: rgb(245,121,97); fill-rule: nonzero; opacity: 1;" transform=" matrix(1 0 0 1 0 0) " stroke-linecap="round"/>
	<path d="M 45.283 41.439 V 25.31 c 0 -0.672 -0.26 -1.278 -0.675 -1.743 h 0.009 L 36.391 8.492 H 20.522 l -8.226 15.076 h 0.009 c -0.415 0.464 -0.675 1.071 -0.675 1.743 v 16.128 c 0 2.422 1.964 4.386 4.386 4.386 c -2.422 0 -4.386 1.963 -4.386 4.386 v 1.747 c 0 2.422 1.964 4.386 4.386 4.386 c -2.422 0 -4.386 1.964 -4.386 4.386 v 1.747 c 0 2.422 1.964 4.386 4.386 4.386 c -2.422 0 -4.386 1.963 -4.386 4.386 v 14.368 c 0 2.422 1.964 4.386 4.386 4.386 h 24.881 c 2.422 0 4.386 -1.964 4.386 -4.386 V 71.246 c 0 -2.422 -1.964 -4.386 -4.386 -4.386 c 2.422 0 4.386 -1.964 4.386 -4.386 v -1.747 c 0 -2.422 -1.964 -4.386 -4.386 -4.386 c 2.422 0 4.386 -1.963 4.386 -4.386 V 50.21 c 0 -2.422 -1.964 -4.386 -4.386 -4.386 C 43.319 45.824 45.283 43.861 45.283 41.439 z" style="stroke: none; stroke-width: 1; stroke-dasharray: none; stroke-linecap: butt; stroke-linejoin: miter; stroke-miterlimit: 10; fill: rgb(138,222,255); fill-rule: nonzero; opacity: 1;" transform=" matrix(1 0 0 1 0 0) " stroke-linecap="round"/>
	<path d="M 17.767 85.614 V 72.992 c 0 -0.71 0.576 -1.286 1.286 -1.286 h 26.23 v -0.461 c 0 -2.422 -1.964 -4.386 -4.386 -4.386 H 22.153 c -2.422 0 -4.386 -1.964 -4.386 -4.386 c 0 -0.71 0.576 -1.286 1.286 -1.286 h 26.23 v -0.461 c 0 -2.422 -1.964 -4.386 -4.386 -4.386 H 22.153 c -2.422 0 -4.386 -1.963 -4.386 -4.386 c 0 -0.71 0.576 -1.286 1.286 -1.286 h 26.23 V 50.21 c 0 -2.422 -1.964 -4.386 -4.386 -4.386 H 22.153 c -2.422 0 -4.386 -1.964 -4.386 -4.386 V 30.098 c 0 -1.418 1.149 -2.567 2.567 -2.567 h 24.948 v -2.22 c 0 -0.672 -0.26 -1.278 -0.675 -1.743 h 0.009 l -0.482 -0.883 H 23.24 c -1.949 0 -3.187 -2.086 -2.254 -3.797 l 5.673 -10.396 h -6.136 l -8.226 15.076 h 0.009 c -0.415 0.464 -0.675 1.071 -0.675 1.743 v 16.128 c 0 2.422 1.964 4.386 4.386 4.386 c -2.422 0 -4.386 1.963 -4.386 4.386 v 1.747 c 0 2.422 1.964 4.386 4.386 4.386 c -2.422 0 -4.386 1.964 -4.386 4.386 v 1.747 c 0 2.422 1.964 4.386 4.386 4.386 c -2.422 0 -4.386 1.963 -4.386 4.386 v 14.368 c 0 2.422 1.964 4.386 4.386 4.386 h 6.136 C 19.73 90 17.767 88.036 17.767 85.614 z" style="stroke: none; stroke-width: 1; stroke-dasharray: none; stroke-linecap: butt; stroke-linejoin: miter; stroke-miterlimit: 10; fill: rgb(47,182,235); fill-rule: nonzero; opacity: 1;" transform=" matrix(1 0 0 1 0 0) " stroke-linecap="round"/>
	<path d="M 20.833 2.742 c 0 1.481 1.201 2.682 2.682 2.682 h 15.633 V 5.81 c 0 1.481 -1.201 2.682 -2.682 2.682 h -16.02 c -1.481 0 -2.682 -1.201 -2.682 -2.682 V 2.682 C 17.765 1.201 18.966 0 20.447 0 h 0.387 V 2.742 z" style="stroke: none; stroke-width: 1; stroke-dasharray: none; stroke-linecap: butt; stroke-linejoin: miter; stroke-miterlimit: 10; fill: rgb(224,49,14); fill-rule: nonzero; opacity: 1;" transform=" matrix(1 0 0 1 0 0) " stroke-linecap="round"/>
	<path d="M 67.367 90 h -23.17 c -1.615 0 -2.98 -1.195 -3.194 -2.796 L 33.195 28.66 h 45.175 l -7.809 58.544 C 70.347 88.805 68.982 90 67.367 90 z" style="stroke: none; stroke-width: 1; stroke-dasharray: none; stroke-linecap: butt; stroke-linejoin: miter; stroke-miterlimit: 10; fill: rgb(47,182,235); fill-rule: nonzero; opacity: 1;" transform=" matrix(1 0 0 1 0 0) " stroke-linecap="round"/>
	<path d="M 49.311 84.886 c -1.615 0 -2.98 -1.195 -3.194 -2.796 L 38.99 28.66 h -5.796 l 7.809 58.544 C 41.217 88.805 42.582 90 44.197 90 h 23.17 c 1.615 0 2.98 -1.195 3.194 -2.796 l 0.309 -2.318 H 49.311 z" style="stroke: none; stroke-width: 1; stroke-dasharray: none; stroke-linecap: butt; stroke-linejoin: miter; stroke-miterlimit: 10; fill: rgb(37,156,203); fill-rule: nonzero; opacity: 1;" transform=" matrix(1 0 0 1 0 0) " stroke-linecap="round"/>
	<polygon points="35.48,45.82 76.08,45.82 78.37,28.66 33.2,28.66 " style="stroke: none; stroke-width: 1; stroke-dasharray: none; stroke-linecap: butt; stroke-linejoin: miter; stroke-miterlimit: 10; fill: rgb(138,222,255); fill-rule: nonzero; opacity: 1;" transform="  matrix(1 0 0 1 0 0) "/>
	<polygon points="41.28,45.82 38.99,28.66 33.2,28.66 35.48,45.82 " style="stroke: none; stroke-width: 1; stroke-dasharray: none; stroke-linecap: butt; stroke-linejoin: miter; stroke-miterlimit: 10; fill: rgb(121,202,234); fill-rule: nonzero; opacity: 1;" transform="  matrix(1 0 0 1 0 0) "/>
</g>
</svg>